<svg xmlns="http://www.w3.org/2000/svg" viewBox="0 0 167.32 86.63"><defs><style>.cls-1{isolation:isolate;}.cls-2{fill:#26295b;}.cls-3{fill:#e62352;}.cls-4{fill:#f7a813;}.cls-5{fill:none;mix-blend-mode:multiply;}</style></defs><g class="cls-1"><g id="Layer_2" data-name="Layer 2"><g id="Layer_6" data-name="Layer 6"><path class="cls-2" d="M58.23,43.4c-5.15.54-14.16,2.48-14.81-1.48a1.93,1.93,0,0,1,1.86-1.84,42.3,42.3,0,0,1,14.17,1.63l.77-2.66c-6.75-2.33-16.49-1.86-19.85-1.41l0-.2C45,35,52.16,28.24,55.12,23.19l-2.33-1.5c-3.37,5.57-11.13,12.65-15.47,14L38,40.77s1.9-.29,2.73-.38c-1.74,9.06,2.55,22.23,15.08,23l.4-2.74c-7.37.72-17.37-12.86-10.1-13.79a47.12,47.12,0,0,0,14-1l-.55-2.71Z"/><path class="cls-3" d="M38.75,53.4c-.21-.22-7.82,3.36-14.81,14.56l2.38,1.42c13.93-20.72,8.53-9.65,23.28-.6l1.49-2.34C43.39,62.91,38.26,53.28,38.75,53.4Z"/><path class="cls-3" d="M52.14,57.43c6.18.08,5.89-9.7-.29-9.25C46,48.44,46.32,57.54,52.14,57.43Zm-1.39-5.86c1.57-1.83,4.41.68,2.78,2.46S49.12,53.36,50.75,51.57Z"/><path class="cls-4" d="M39.62,63c-6.73-5.17-11.52,7.53-3.06,8.1C40.69,71.26,42.82,65.64,39.62,63ZM38,67.71c-1.58,1.83-4.42-.67-2.79-2.46S39.58,65.93,38,67.71Z"/><path class="cls-3" d="M37.47,45.64s-1.9.28-2.72.37c1.86-8.69-2.68-22.4-15.09-22.95l-.4,2.74c6.61-.79,18,12.2,9.17,13.73a46.9,46.9,0,0,0-13.11,1l.55,2.71c22.74-4.88,20.62,7.65.13,1.42l-.76,2.66c6.75,2.33,16.49,1.86,19.85,1.41l0,.21c-4.61,2.44-11.82,9.19-14.77,14.25l2.33,1.49c3.37-5.57,11.12-12.65,15.47-14Z"/><path class="cls-2" d="M36.64,33s7.43-2.83,14.87-14.54L49.14,17c-14.63,20.2-7.3,9-23.29.61L24.37,20C32.45,23.53,36.64,33,36.64,33Z"/><path class="cls-2" d="M20.25,37.07c2.93,2.74,8.06.24,7.68-3.76C26.72,24.66,14.16,30.83,20.25,37.07Zm1.67-4.7c2.44-2.49,5,2.68,1.51,3.09A1.88,1.88,0,0,1,21.92,32.37Z"/><path class="cls-4" d="M35.83,23.39c4.44,4,10.69-3,6.13-6.94S31.27,19.49,35.83,23.39Zm1.67-4.7c1.56-1.84,4.41.68,2.79,2.46S35.87,20.47,37.5,18.69Z"/><path class="cls-2" d="M73.29,46.27H76a5.15,5.15,0,0,0,3.7-1.48,5.17,5.17,0,0,0,0-7.28A5.15,5.15,0,0,0,76,36H70.29V51.27h3Zm0-7.43H76a2.1,2.1,0,0,1,1.59.66,2.26,2.26,0,0,1,.63,1.65,2.29,2.29,0,0,1-.63,1.64,2.08,2.08,0,0,1-1.59.67H73.29Z"/><path class="cls-2" d="M91.56,41.76a5.82,5.82,0,1,0,1.67,4.07A5.57,5.57,0,0,0,91.56,41.76Zm-2,6.23a3.08,3.08,0,0,1-4.23,0,3.24,3.24,0,0,1,0-4.31,3.06,3.06,0,0,1,4.23,0,2.92,2.92,0,0,1,.84,2.15A3,3,0,0,1,89.58,48Z"/><rect class="cls-2" x="95.21" y="35.38" width="2.81" height="15.89"/><path class="cls-2" d="M106.73,51.27l4-10.88h-3l-2.42,7.31-2.83-7.31H99.37l4.47,10.54a3.33,3.33,0,0,1-1.07,1.61A2.9,2.9,0,0,1,101,53h-.61V71.09h2.81V55.34a4.69,4.69,0,0,0,1.3-.66A7.15,7.15,0,0,0,106.73,51.27Z"/><path class="cls-2" d="M118.26,48.41a3,3,0,0,1-1.51.38,2.79,2.79,0,0,1-2.09-.83,2.94,2.94,0,0,1-.83-2.13,2.89,2.89,0,0,1,.83-2.14,2.8,2.8,0,0,1,2.09-.84,2.91,2.91,0,0,1,1.49.39,2.49,2.49,0,0,1,1,1.07l2.41-1.42a5,5,0,0,0-2-2,5.77,5.77,0,1,0-2.89,10.73,5.74,5.74,0,0,0,2.88-.76,5.34,5.34,0,0,0,2-2.07l-2.44-1.4A2.41,2.41,0,0,1,118.26,48.41Z"/><path class="cls-2" d="M128.18,40.08a5.74,5.74,0,1,0,4.09,1.68A5.58,5.58,0,0,0,128.18,40.08ZM130.29,48a3.08,3.08,0,0,1-4.23,0,3.24,3.24,0,0,1,0-4.31,3.06,3.06,0,0,1,4.23,0,2.92,2.92,0,0,1,.85,2.15A3,3,0,0,1,130.29,48Z"/><path class="cls-2" d="M151,41.3a3.89,3.89,0,0,0-3-1.22,3.67,3.67,0,0,0-3.25,1.57,3.2,3.2,0,0,0-3-1.57,3.42,3.42,0,0,0-3,1.46V40.39h-2.8V51.27h2.8V45.16a2.7,2.7,0,0,1,.56-1.82,1.87,1.87,0,0,1,1.49-.64,1.71,1.71,0,0,1,1.35.54,2.22,2.22,0,0,1,.48,1.52v6.51h2.81V45.16a2.79,2.79,0,0,1,.53-1.83,1.85,1.85,0,0,1,1.49-.63,1.71,1.71,0,0,1,1.35.54,2.22,2.22,0,0,1,.48,1.52v6.51h2.81v-6.7A4.64,4.64,0,0,0,151,41.3Z"/><path class="cls-2" d="M77.6,65.56h4.62a3.81,3.81,0,0,1-1.57,2.13A5.84,5.84,0,0,1,74,67.06a5.25,5.25,0,0,1,0-7.16,4.75,4.75,0,0,1,3.59-1.44,5.18,5.18,0,0,1,2.44.59,4,4,0,0,1,1.65,1.52l2.57-1.48a7.25,7.25,0,0,0-2.76-2.59,8,8,0,0,0-3.88-1,7.86,7.86,0,0,0-8,8,7.64,7.64,0,0,0,2.31,5.62,8,8,0,0,0,5.85,2.28,7.42,7.42,0,0,0,5.4-2,7,7,0,0,0,2.09-5.29V62.9H77.6Z"/><path class="cls-2" d="M88.64,55.43a1.63,1.63,0,0,0-1.21.53,1.67,1.67,0,0,0-.51,1.22,1.64,1.64,0,0,0,.51,1.2,1.62,1.62,0,0,0,1.21.52,1.76,1.76,0,0,0,1.74-1.72,1.78,1.78,0,0,0-1.74-1.75Z"/><rect class="cls-2" x="87.25" y="60.2" width="2.81" height="10.89"/><path class="cls-2" d="M95.43,62.07V60.2H92.62V71.09h2.81V65.88a2.52,2.52,0,0,1,1-2.24,3.21,3.21,0,0,1,2.31-.52V60a3.9,3.9,0,0,0-2,.54A2.91,2.91,0,0,0,95.43,62.07Z"/><path class="cls-2" d="M112.64,65.44a5.17,5.17,0,0,0-1.14-.59,9.47,9.47,0,0,0-1.26-.36c-1.33-.33-2-.73-2-1.2a.76.76,0,0,1,.36-.64,1.53,1.53,0,0,1,.91-.25,1.79,1.79,0,0,1,1.74,1.11l2.39-1.31a4.33,4.33,0,0,0-1.72-1.7,4.9,4.9,0,0,0-2.41-.6,4.65,4.65,0,0,0-3,.93,3,3,0,0,0-1.18,2.53,3,3,0,0,0,.32,1.4,2.47,2.47,0,0,0,.92,1,6.41,6.41,0,0,0,1.13.58,13.28,13.28,0,0,0,1.27.39c1.32.34,2,.73,2,1.2q0,.93-1.5.93a2.05,2.05,0,0,1-2.14-1.41l-2.44,1.37a4.59,4.59,0,0,0,4.58,2.59,5.29,5.29,0,0,0,3.11-.89,3,3,0,0,0,1.26-2.59,3.11,3.11,0,0,0-.33-1.46A2.51,2.51,0,0,0,112.64,65.44Z"/><rect class="cls-5" width="167.32" height="86.63"/></g></g></g></svg>
